<svg xmlns="http://www.w3.org/2000/svg" width="1600" height="1600" viewBox="0 0 1600 1600">
  <defs>
    <linearGradient id="bg" x1="0" y1="0" x2="1" y2="1">
      <stop offset="0%" stop-color="#f8fafc"/>
      <stop offset="100%" stop-color="#eef2ff"/>
    </linearGradient>
    <linearGradient id="backend" x1="0" y1="0" x2="1" y2="1">
      <stop offset="0%" stop-color="#eef2ff"/>
      <stop offset="100%" stop-color="#e0e7ff"/>
    </linearGradient>
    <filter id="shadow" x="-20%" y="-20%" width="140%" height="140%">
      <feDropShadow dx="0" dy="5" stdDeviation="8" flood-color="#0f172a" flood-opacity="0.10"/>
    </filter>
    <marker id="arrow" markerWidth="12" markerHeight="12" refX="10" refY="6" orient="auto">
      <path d="M 0 0 L 12 6 L 0 12 z" fill="#64748b"/>
    </marker>
    <marker id="arrowBlue" markerWidth="12" markerHeight="12" refX="10" refY="6" orient="auto">
      <path d="M 0 0 L 12 6 L 0 12 z" fill="#4f46e5"/>
    </marker>
    <style>
      .title { font: 700 34px "PingFang SC","Microsoft YaHei",Arial,sans-serif; fill: #0f172a; }
      .subtitle { font: 400 16px "PingFang SC","Microsoft YaHei",Arial,sans-serif; fill: #64748b; }
      .group-title { font: 700 20px "PingFang SC","Microsoft YaHei",Arial,sans-serif; fill: #1e293b; }
      .box-title { font: 700 17px "PingFang SC","Microsoft YaHei",Arial,sans-serif; fill: #0f172a; }
      .box-text { font: 400 14px "PingFang SC","Microsoft YaHei",Arial,sans-serif; fill: #475569; }
      .edge-text { font: 500 13px "PingFang SC","Microsoft YaHei",Arial,sans-serif; fill: #475569; }
      .badge { font: 600 12px "PingFang SC","Microsoft YaHei",Arial,sans-serif; fill: #ffffff; }
      .group { stroke-width: 2; rx: 22; }
      .box { fill: #ffffff; stroke-width: 1.5; rx: 14; filter: url(#shadow); }
      .edge { fill: none; stroke: #64748b; stroke-width: 2.2; marker-end: url(#arrow); }
      .edge-blue { fill: none; stroke: #4f46e5; stroke-width: 2.5; marker-end: url(#arrowBlue); }
      .edge-dash { fill: none; stroke: #64748b; stroke-width: 2; stroke-dasharray: 7 6; marker-end: url(#arrow); }
    </style>
  </defs>

  <rect width="1600" height="1180" fill="url(#bg)"/>
  <text x="70" y="65" class="title">KOL Admin 当前系统架构</text>
  <text x="70" y="96" class="subtitle">全球媒体 / KOL / 创作者资源智能运营管理平台</text>
  <rect x="1370" y="46" width="160" height="34" rx="17" fill="#4f46e5"/>
  <text x="1450" y="68" text-anchor="middle" class="badge">基于当前仓库实现</text>

  <!-- User -->
  <rect x="665" y="125" width="270" height="72" class="box" stroke="#94a3b8"/>
  <circle cx="710" cy="161" r="19" fill="#e0e7ff"/>
  <path d="M703 160a7 7 0 1 0 14 0a7 7 0 1 0-14 0M697 180c2-10 24-10 26 0" fill="none" stroke="#4f46e5" stroke-width="2"/>
  <text x="745" y="156" class="box-title">业务用户 / 系统管理员</text>
  <text x="745" y="179" class="box-text">HQ、区域、项目与资源运营人员</text>

  <!-- Frontend group -->
  <rect x="70" y="245" width="1460" height="195" class="group" fill="#ecfeff" stroke="#22d3ee"/>
  <text x="100" y="280" class="group-title">管理端 · vue-pure-admin</text>
  <rect x="100" y="305" width="305" height="100" class="box" stroke="#22d3ee"/>
  <text x="125" y="339" class="box-title">Vue 3 + TypeScript + Vite</text>
  <text x="125" y="365" class="box-text">Element Plus · Pinia · Axios</text>
  <text x="125" y="387" class="box-text">响应式管理后台界面</text>

  <rect x="455" y="305" width="410" height="100" class="box" stroke="#22d3ee"/>
  <text x="480" y="339" class="box-title">业务页面</text>
  <text x="480" y="365" class="box-text">工作台 · 智能助手 · 全球资源库 · 项目管理</text>
  <text x="480" y="387" class="box-text">平台帖子 · 标签 · 治理规则 · AI 模型配置</text>

  <rect x="915" y="305" width="280" height="100" class="box" stroke="#22d3ee"/>
  <text x="940" y="339" class="box-title">权限与路由</text>
  <text x="940" y="365" class="box-text">动态菜单 · 角色权限</text>
  <text x="940" y="387" class="box-text">按钮权限 · 登录状态</text>

  <rect x="1245" y="305" width="255" height="100" class="box" stroke="#22d3ee"/>
  <text x="1270" y="339" class="box-title">HTTP Client</text>
  <text x="1270" y="365" class="box-text">Axios 统一请求封装</text>
  <text x="1270" y="387" class="box-text">开发环境 /api 代理</text>

  <!-- Backend group -->
  <rect x="70" y="500" width="1460" height="300" class="group" fill="url(#backend)" stroke="#818cf8"/>
  <text x="100" y="535" class="group-title">应用后端 · Go 单体服务（默认 :8080）</text>

  <rect x="100" y="565" width="250" height="92" class="box" stroke="#818cf8"/>
  <text x="125" y="598" class="box-title">net/http REST API</text>
  <text x="125" y="624" class="box-text">统一响应 · CORS · 文件上传</text>

  <rect x="385" y="565" width="250" height="92" class="box" stroke="#818cf8"/>
  <text x="410" y="598" class="box-title">认证与权限</text>
  <text x="410" y="624" class="box-text">用户 · 角色 · 菜单 · 日志</text>

  <rect x="670" y="565" width="310" height="92" class="box" stroke="#818cf8"/>
  <text x="695" y="598" class="box-title">核心业务服务</text>
  <text x="695" y="624" class="box-text">资源 · 标签 · 项目 · 合作 · 看板</text>

  <rect x="1015" y="565" width="235" height="92" class="box" stroke="#818cf8"/>
  <text x="1040" y="598" class="box-title">智能推荐</text>
  <text x="1040" y="624" class="box-text">本地规则 + AI 增强</text>

  <rect x="1285" y="565" width="215" height="92" class="box" stroke="#818cf8"/>
  <text x="1310" y="598" class="box-title">Viper 配置</text>
  <text x="1310" y="624" class="box-text">API Key · Token · 热更新</text>

  <rect x="100" y="690" width="335" height="82" class="box" stroke="#818cf8"/>
  <text x="125" y="721" class="box-title">平台同步引擎</text>
  <text x="125" y="747" class="box-text">单资源同步 · 异步批量任务 · 状态追踪</text>

  <rect x="475" y="690" width="335" height="82" class="box" stroke="#818cf8"/>
  <text x="500" y="721" class="box-title">采集回调接口</text>
  <text x="500" y="747" class="box-text">POST /collector/tiktok/callback</text>

  <rect x="850" y="690" width="300" height="82" class="box" stroke="#818cf8"/>
  <text x="875" y="721" class="box-title">治理规则与版本</text>
  <text x="875" y="747" class="box-text">推荐规则 · 平台同步配置 · 版本记录</text>

  <rect x="1190" y="690" width="310" height="82" class="box" stroke="#818cf8"/>
  <text x="1215" y="721" class="box-title">本地文件存储</text>
  <text x="1215" y="747" class="box-text">backend/uploads/images</text>

  <!-- Bottom groups -->
  <rect x="70" y="865" width="445" height="245" class="group" fill="#f0fdf4" stroke="#4ade80"/>
  <text x="100" y="900" class="group-title">数据层</text>
  <ellipse cx="292" cy="952" rx="145" ry="39" fill="#ffffff" stroke="#22c55e" stroke-width="2" filter="url(#shadow)"/>
  <path d="M147 952v28c0 22 290 22 290 0v-28" fill="#ffffff" stroke="#22c55e" stroke-width="2"/>
  <text x="292" y="958" text-anchor="middle" class="box-title">MySQL · kol_admin</text>
  <rect x="100" y="1020" width="120" height="58" class="box" stroke="#4ade80"/>
  <text x="160" y="1045" text-anchor="middle" class="box-title">系统域</text>
  <text x="160" y="1066" text-anchor="middle" class="box-text">权限 / 日志</text>
  <rect x="232" y="1020" width="120" height="58" class="box" stroke="#4ade80"/>
  <text x="292" y="1045" text-anchor="middle" class="box-title">业务域</text>
  <text x="292" y="1066" text-anchor="middle" class="box-text">资源 / 项目</text>
  <rect x="364" y="1020" width="120" height="58" class="box" stroke="#4ade80"/>
  <text x="424" y="1045" text-anchor="middle" class="box-title">治理域</text>
  <text x="424" y="1066" text-anchor="middle" class="box-text">规则 / 同步</text>

  <rect x="555" y="865" width="470" height="245" class="group" fill="#fff7ed" stroke="#fb923c"/>
  <text x="585" y="900" class="group-title">独立采集链路</text>
  <rect x="585" y="930" width="185" height="75" class="box" stroke="#fb923c"/>
  <text x="677" y="960" text-anchor="middle" class="box-title">TikTok Plugin</text>
  <text x="677" y="983" text-anchor="middle" class="box-text">Python CLI Agent</text>
  <rect x="810" y="930" width="185" height="75" class="box" stroke="#fb923c"/>
  <text x="902" y="960" text-anchor="middle" class="box-title">FastAPI 采集服务</text>
  <text x="902" y="983" text-anchor="middle" class="box-text">默认示例 :8001</text>
  <rect x="700" y="1030" width="185" height="55" class="box" stroke="#fb923c"/>
  <text x="792" y="1055" text-anchor="middle" class="box-title">平台爬虫适配器</text>
  <text x="792" y="1076" text-anchor="middle" class="box-text">TikTok / 抖音 / Bilibili</text>

  <rect x="1065" y="865" width="465" height="245" class="group" fill="#fdf2f8" stroke="#f472b6"/>
  <text x="1095" y="900" class="group-title">外部服务与平台</text>
  <rect x="1095" y="930" width="190" height="70" class="box" stroke="#f472b6"/>
  <text x="1190" y="960" text-anchor="middle" class="box-title">YouTube Data API</text>
  <text x="1190" y="982" text-anchor="middle" class="box-text">频道与视频数据</text>
  <rect x="1310" y="930" width="190" height="70" class="box" stroke="#f472b6"/>
  <text x="1405" y="960" text-anchor="middle" class="box-title">TikHub API</text>
  <text x="1405" y="982" text-anchor="middle" class="box-text">TikTok / Instagram</text>
  <rect x="1095" y="1030" width="190" height="55" class="box" stroke="#f472b6"/>
  <text x="1190" y="1063" text-anchor="middle" class="box-title">公开平台 Web</text>
  <rect x="1310" y="1030" width="190" height="55" class="box" stroke="#f472b6"/>
  <text x="1405" y="1054" text-anchor="middle" class="box-title">AI 模型 API</text>
  <text x="1405" y="1075" text-anchor="middle" class="box-text">OpenAI 兼容接口</text>

  <!-- Main edges -->
  <path d="M800 197 L800 245" class="edge-blue"/>
  <text x="815" y="226" class="edge-text">使用系统</text>
  <path d="M1372 405 L1372 470 L225 470 L225 565" class="edge-blue"/>
  <text x="775" y="462" text-anchor="middle" class="edge-text">REST JSON · /api 开发代理</text>

  <path d="M225 657 L225 690" class="edge"/>
  <path d="M350 611 L385 611" class="edge"/>
  <path d="M635 611 L670 611" class="edge"/>
  <path d="M980 611 L1015 611" class="edge"/>
  <path d="M1250 611 L1285 611" class="edge-dash"/>

  <path d="M270 772 L270 835 L292 835 L292 913" class="edge"/>
  <path d="M645 772 L645 820 L350 820 L350 913" class="edge"/>
  <path d="M825 657 L825 820 L425 820 L425 913" class="edge"/>
  <text x="475" y="842" class="edge-text">读写业务与同步数据</text>

  <path d="M435 731 L540 731 L540 840 L677 840 L677 930" class="edge-dash"/>
  <text x="570" y="854" class="edge-text">可选独立采集</text>
  <path d="M770 968 L810 968" class="edge"/>
  <path d="M902 1005 L902 1018 L792 1018 L792 1030" class="edge"/>
  <path d="M700 1057 L665 1057 L665 795 L645 795 L645 772" class="edge-blue"/>
  <text x="680" y="815" class="edge-text">Token 回调</text>

  <path d="M267 690 L267 675 L1190 675 L1190 930" class="edge"/>
  <path d="M350 731 L1225 731 L1225 915 L1405 915 L1405 930" class="edge"/>
  <path d="M1132 657 L1132 835 L1405 835 L1405 1030" class="edge"/>
  <path d="M885 1057 L1095 1057" class="edge"/>

  <!-- Legend -->
  <line x1="70" y1="1145" x2="115" y2="1145" class="edge-blue"/>
  <text x="130" y="1150" class="edge-text">主要请求链路</text>
  <line x1="275" y1="1145" x2="320" y2="1145" class="edge"/>
  <text x="335" y="1150" class="edge-text">数据调用 / 依赖</text>
  <line x1="515" y1="1145" x2="560" y2="1145" class="edge-dash"/>
  <text x="575" y="1150" class="edge-text">配置或可选链路</text>
  <text x="1530" y="1150" text-anchor="end" class="subtitle">生成日期：2026-06-09</text>
</svg>
